<svg width="36" height="36" viewBox="0 0 36 36" fill="none" xmlns="http://www.w3.org/2000/svg">
  <path d="M14.25 4.5C8.03679 4.5 3 9.53679 3 15.75C3 17.4503 3.3779 19.065 4.05504 20.5124C3.60186 22.35 3.20931 24.3128 3.03261 25.226C2.83266 26.2595 3.73101 27.1649 4.76241 26.9813C5.69738 26.8148 7.72972 26.4401 9.61714 26.0045C10.9596 26.6118 12.4419 26.9632 14 26.9973C14.0831 26.9991 14.1665 27 14.25 27C20.4632 27 25.5 21.9632 25.5 15.75C25.5 13.6491 24.9241 11.6827 23.9216 10C21.9592 6.70642 18.3622 4.5 14.25 4.5ZM14.1929 28.4994C16.2002 30.3617 18.8883 31.5003 21.8424 31.5003C23.4916 31.5003 25.0605 31.1447 26.4743 30.5052C28.04 30.8717 29.7537 31.2374 30.8445 31.4654C32.1831 31.7451 33.3522 30.5436 33.0456 29.2163C32.8018 28.1612 32.4176 26.5233 32.0379 25.0113C32.7147 23.5643 33.0924 21.95 33.0924 20.2503C33.0924 15.3258 29.9284 11.1404 25.5225 9.61596C26.0479 10.5715 26.4545 11.6017 26.7219 12.6866C29.2014 14.2894 30.8424 17.0783 30.8424 20.2503C30.8424 21.7374 30.4825 23.1372 29.8462 24.3705L29.6505 24.75L29.7558 25.1637C30.0975 26.507 30.4556 28.0137 30.7181 29.1396C29.5569 28.8941 27.9916 28.5543 26.6092 28.2252L26.2125 28.1309L25.8474 28.3125C24.6425 28.9124 23.2834 29.2503 21.8424 29.2503C20.2531 29.2503 18.7601 28.8383 17.4641 28.1154C16.4652 28.3668 15.4194 28.5003 14.3424 28.5003C14.2925 28.5003 14.2427 28.5 14.1929 28.4994Z" fill="#31081F"/>
  <path d="M25.5 15.75C25.5 21.9632 20.4632 27 14.25 27C14.1665 27 14.0831 26.9991 14 26.9973C13.9214 27.6151 13.9378 27.9489 14.1929 28.4994C14.2427 28.5 14.2925 28.5003 14.3424 28.5003C15.4194 28.5003 16.4652 28.3668 17.4641 28.1154C18.7601 28.8383 20.2531 29.2503 21.8424 29.2503C23.2834 29.2503 24.6425 28.9124 25.8474 28.3125L26.2125 28.1309L26.6092 28.2252C27.9916 28.5543 29.5569 28.8941 30.7181 29.1396C30.4556 28.0137 30.0975 26.507 29.7558 25.1637L29.6505 24.75L29.8462 24.3705C30.4825 23.1372 30.8424 21.7374 30.8424 20.2503C30.8424 17.0783 29.2014 14.2894 26.7219 12.6866C26.4545 11.6017 26.0479 10.5715 25.5225 9.61596C24.8855 9.6823 24.5347 9.76508 23.9216 10C24.9241 11.6827 25.5 13.6491 25.5 15.75Z" fill="white"/>
  <path d="M14.25 4.5C8.03679 4.5 3 9.53679 3 15.75C3 17.4503 3.3779 19.065 4.05504 20.5124C3.60186 22.35 3.20931 24.3128 3.03261 25.226C2.83266 26.2595 3.73101 27.1649 4.76241 26.9813C5.69738 26.8148 7.72972 26.4401 9.61714 26.0045C11.0312 26.6442 12.6004 27 14.25 27C20.4632 27 25.5 21.9632 25.5 15.75C25.5 9.53679 20.4632 4.5 14.25 4.5ZM14.1929 28.4994C16.2002 30.3617 18.8883 31.5003 21.8424 31.5003C23.4916 31.5003 25.0605 31.1447 26.4743 30.5052C28.04 30.8717 29.7537 31.2374 30.8445 31.4654C32.1831 31.7451 33.3522 30.5436 33.0456 29.2163C32.8018 28.1612 32.4176 26.5233 32.0379 25.0113C32.7147 23.5643 33.0924 21.95 33.0924 20.2503C33.0924 15.3258 29.9284 11.1404 25.5225 9.61596C26.0479 10.5715 26.4545 11.6017 26.7219 12.6866C29.2014 14.2894 30.8424 17.0783 30.8424 20.2503C30.8424 21.7374 30.4825 23.1372 29.8462 24.3705L29.6505 24.75L29.7558 25.1637C30.0975 26.507 30.4556 28.0137 30.7181 29.1396C29.5569 28.8941 27.9916 28.5543 26.6092 28.2252L26.2125 28.1309L25.8474 28.3125C24.6425 28.9124 23.2834 29.2503 21.8424 29.2503C20.2531 29.2503 18.7601 28.8383 17.4641 28.1154C16.4652 28.3668 15.4194 28.5003 14.3424 28.5003C14.2925 28.5003 14.2427 28.5 14.1929 28.4994Z" fill="#31081F"/>
  <path d="M11.52 19H10.152L7.864 15.536V19H6.496V13.384H7.864L10.152 16.864V13.384H11.52V19ZM13.8556 13.384V16.744C13.8556 17.08 13.9383 17.3387 14.1036 17.52C14.269 17.7013 14.5116 17.792 14.8316 17.792C15.1516 17.792 15.397 17.7013 15.5676 17.52C15.7383 17.3387 15.8236 17.08 15.8236 16.744V13.384H17.1916V16.736C17.1916 17.2373 17.085 17.6613 16.8716 18.008C16.6583 18.3547 16.3703 18.616 16.0076 18.792C15.6503 18.968 15.2503 19.056 14.8076 19.056C14.365 19.056 13.9676 18.9707 13.6156 18.8C13.269 18.624 12.9943 18.3627 12.7916 18.016C12.589 17.664 12.4876 17.2373 12.4876 16.736V13.384H13.8556ZM20.1843 19.056C19.7736 19.056 19.4056 18.9893 19.0803 18.856C18.7549 18.7227 18.4936 18.5253 18.2963 18.264C18.1043 18.0027 18.0029 17.688 17.9923 17.32H19.4483C19.4696 17.528 19.5416 17.688 19.6643 17.8C19.7869 17.9067 19.9469 17.96 20.1443 17.96C20.3469 17.96 20.5069 17.9147 20.6243 17.824C20.7416 17.728 20.8003 17.5973 20.8003 17.432C20.8003 17.2933 20.7523 17.1787 20.6563 17.088C20.5656 16.9973 20.4509 16.9227 20.3123 16.864C20.1789 16.8053 19.9869 16.7387 19.7363 16.664C19.3736 16.552 19.0776 16.44 18.8483 16.328C18.6189 16.216 18.4216 16.0507 18.2563 15.832C18.0909 15.6133 18.0083 15.328 18.0083 14.976C18.0083 14.4533 18.1976 14.0453 18.5763 13.752C18.9549 13.4533 19.4483 13.304 20.0563 13.304C20.6749 13.304 21.1736 13.4533 21.5523 13.752C21.9309 14.0453 22.1336 14.456 22.1603 14.984H20.6803C20.6696 14.8027 20.6029 14.6613 20.4803 14.56C20.3576 14.4533 20.2003 14.4 20.0082 14.4C19.8429 14.4 19.7096 14.4453 19.6083 14.536C19.5069 14.6213 19.4563 14.7467 19.4563 14.912C19.4563 15.0933 19.5416 15.2347 19.7122 15.336C19.8829 15.4373 20.1496 15.5467 20.5123 15.664C20.8749 15.7867 21.1683 15.904 21.3923 16.016C21.6216 16.128 21.8189 16.2907 21.9843 16.504C22.1496 16.7173 22.2323 16.992 22.2323 17.328C22.2323 17.648 22.1496 17.9387 21.9843 18.2C21.8243 18.4613 21.5896 18.6693 21.2803 18.824C20.9709 18.9787 20.6056 19.056 20.1843 19.056Z" fill="white"/>
</svg>
